<svg width="24" height="24" viewBox="0 0 24 24" fill="none" xmlns="http://www.w3.org/2000/svg">
<path d="M14.0781 1.23065C14.1671 1.33181 14.1479 1.48664 14.1097 1.79629L14.0524 2.26053C13.9509 2.86919 13.8842 3.25947 13.799 3.54553C13.7191 3.81395 13.6477 3.89928 13.5911 3.94726C13.5344 3.99525 13.4385 4.05165 13.1606 4.08634C12.8619 4.12364 12.4617 4.125 11.8356 4.125H9.91834C9.29221 4.125 8.89203 4.12364 8.59333 4.08634C8.31542 4.05165 8.21951 3.99525 8.16287 3.94726C8.10623 3.89928 8.03483 3.81395 7.95492 3.54552C7.86986 3.25984 7.8032 2.87018 7.70195 2.26286L7.64688 1.79259C7.6108 1.48443 7.59276 1.33036 7.68165 1.2299C7.77053 1.12944 7.9247 1.12859 8.23302 1.12689C8.57726 1.12499 8.9391 1.125 9.31867 1.125H12.4355C12.8161 1.125 13.179 1.12499 13.5241 1.1269C13.8341 1.12862 13.9892 1.12948 14.0781 1.23065Z" fill="#7A869A"/>
<path fill-rule="evenodd" clip-rule="evenodd" d="M6.13413 1.77506C6.10187 1.49956 6.08574 1.3618 5.98639 1.28466C5.88704 1.20752 5.75495 1.2253 5.49078 1.26086L5.43141 1.26905C4.38789 1.41673 3.53164 1.73054 2.85833 2.43928C2.19018 3.14261 1.89904 4.02793 1.76114 5.10759C1.62693 6.15836 1.62694 7.50029 1.62695 9.19159V9.19161V14.5619V14.5619C1.62694 16.2532 1.62693 17.5952 1.76114 18.6459C1.89904 19.7256 2.19018 20.6109 2.85833 21.3142C3.53164 22.023 4.38789 22.3368 5.43141 22.4845C6.43706 22.6268 7.71824 22.6268 9.31864 22.6268H12.5647C12.722 22.6268 12.8071 22.4308 12.7105 22.3067C12.6902 22.2806 12.6734 22.2755 12.6449 22.2669C12.6415 22.2658 12.6379 22.2648 12.6342 22.2636C11.6167 21.9464 10.8789 20.9984 10.8789 19.8767C10.8789 18.496 11.9982 17.3767 13.3789 17.3767C13.788 17.3767 14.2011 17.4936 14.2353 17.5035L14.2391 17.5046L14.2401 17.5049C14.4429 17.563 14.6576 17.6436 14.8797 17.7522C14.9648 17.7938 15.0073 17.8146 15.0395 17.8223C15.1339 17.845 15.2155 17.8276 15.2925 17.7683C15.3187 17.7482 15.3459 17.7155 15.4004 17.6502C16.0233 16.9035 16.7766 16.0802 17.6019 15.3565C18.2146 14.8191 18.9489 14.2633 19.7701 13.8517C19.948 13.7625 20.037 13.7179 20.0817 13.6455C20.1264 13.573 20.1265 13.4792 20.1265 13.2915L20.127 9.19164C20.127 7.50031 20.127 6.15838 19.9928 5.10759C19.8549 4.02793 19.5637 3.14261 18.8956 2.43928C18.2223 1.73054 17.366 1.41673 16.3225 1.26905L16.2673 1.26142C16.0046 1.22593 15.8732 1.20819 15.774 1.28468C15.6748 1.36117 15.6579 1.49809 15.6241 1.77194L15.5389 2.46188L15.5352 2.48365C15.4429 3.03761 15.3507 3.59142 15.2364 3.97529C15.1116 4.39435 14.9233 4.78607 14.5604 5.09356C14.1974 5.40104 13.78 5.52238 13.3462 5.57655C12.9435 5.62683 12.4486 5.6268 11.8796 5.62677H9.87384C9.30484 5.6268 8.80994 5.62683 8.40725 5.57655C7.97338 5.52238 7.55604 5.40104 7.19306 5.09356C6.83009 4.78607 6.64179 4.39435 6.51703 3.97529C6.4032 3.59295 6.3107 3.03763 6.21876 2.48572L6.21876 2.48571L6.21401 2.45719L6.13413 1.77506ZM6.87891 10.125C6.46469 10.125 6.12891 10.4608 6.12891 10.875C6.12891 11.2892 6.46469 11.625 6.87891 11.625H14.8789C15.2931 11.625 15.6289 11.2892 15.6289 10.875C15.6289 10.4608 15.2931 10.125 14.8789 10.125H6.87891ZM6.87891 15.125C6.46469 15.125 6.12891 15.4608 6.12891 15.875C6.12891 16.2892 6.46469 16.625 6.87891 16.625H10.8789C11.2931 16.625 11.6289 16.2892 11.6289 15.875C11.6289 15.4608 11.2931 15.125 10.8789 15.125H6.87891Z" fill="#7A869A"/>
<path d="M22.3196 15.5414C22.504 16.062 22.2314 16.6335 21.7108 16.8179C21.1772 17.0069 20.5607 17.4138 19.9076 17.9865C19.2649 18.5501 18.6398 19.2271 18.086 19.8909C17.5342 20.5524 17.0654 21.1861 16.7344 21.6551C16.5692 21.8891 16.309 22.2794 16.221 22.4115C16.0277 22.7156 15.6857 22.8924 15.3258 22.874C14.9659 22.8555 14.6437 22.6448 14.4825 22.3225C14.0418 21.4411 13.6465 21.0902 13.4473 20.9573C13.3629 20.9011 13.306 20.8786 13.2833 20.8709C12.7749 20.8237 12.377 20.396 12.377 19.8753C12.377 19.323 12.8247 18.8753 13.377 18.8753C13.6113 18.8753 13.7203 18.9155 13.8235 18.945C14.0314 19.0044 14.2823 19.1103 14.5567 19.2932C14.8309 19.4761 15.1186 19.7288 15.4073 20.0747C15.7225 19.6439 16.111 19.1363 16.5502 18.6097C17.1435 17.8985 17.8419 17.1379 18.5889 16.4828C19.3256 15.8368 20.165 15.2436 21.0431 14.9326C21.5637 14.7483 22.1352 15.0208 22.3196 15.5414Z" fill="#7A869A"/>
</svg>
