<svg width="24" height="24" viewBox="0 0 24 24" fill="none" xmlns="http://www.w3.org/2000/svg">
<path fill-rule="evenodd" clip-rule="evenodd" d="M17.25 6C17.25 5.58579 17.5858 5.25 18 5.25C19.7949 5.25 21.25 6.70507 21.25 8.5C21.25 10.2949 19.7949 11.75 18 11.75C17.5858 11.75 17.25 11.4142 17.25 11C17.25 10.5858 17.5858 10.25 18 10.25C18.9665 10.25 19.75 9.4665 19.75 8.5C19.75 7.5335 18.9665 6.75 18 6.75C17.5858 6.75 17.25 6.41421 17.25 6ZM18.2531 12.9324C18.2904 12.5199 18.655 12.2157 19.0676 12.2531C20.0061 12.338 20.9187 12.699 21.7229 13.3184C21.7693 13.3541 21.8304 13.3985 21.9022 13.4507C22.2429 13.6986 22.8244 14.1217 23.2165 14.6179C23.4669 14.935 23.7012 15.3499 23.7434 15.8489C23.7875 16.3714 23.6123 16.8791 23.2368 17.3418C22.6619 18.0501 21.8731 18.75 20.774 18.75C20.3598 18.75 20.024 18.4142 20.024 18C20.024 17.5858 20.3598 17.25 20.774 17.25C21.1736 17.25 21.5767 17.0069 22.0721 16.3965C22.2443 16.1844 22.2551 16.051 22.2487 15.9752C22.2403 15.8758 22.1874 15.7351 22.0394 15.5477C21.7902 15.2322 21.4408 14.9754 21.1012 14.7258C21.0016 14.6526 20.9029 14.5801 20.8078 14.5068C20.2174 14.0522 19.5727 13.8049 18.9324 13.747C18.5199 13.7096 18.2157 13.345 18.2531 12.9324Z" fill="#7A869A"/>
<path fill-rule="evenodd" clip-rule="evenodd" d="M2.25004 8.5C2.25004 6.70507 3.70512 5.25 5.50004 5.25C5.91426 5.25 6.25004 5.58579 6.25004 6C6.25004 6.41421 5.91426 6.75 5.50004 6.75C4.53355 6.75 3.75004 7.5335 3.75004 8.5C3.75004 9.4665 4.53355 10.25 5.50004 10.25C5.91426 10.25 6.25004 10.5858 6.25004 11C6.25004 11.4142 5.91426 11.75 5.50004 11.75C3.70512 11.75 2.25004 10.2949 2.25004 8.5ZM4.93247 12.2531C5.345 12.2157 5.70967 12.5199 5.74699 12.9324C5.78431 13.345 5.48015 13.7096 5.06762 13.747C4.42731 13.8049 3.78265 14.0522 3.19228 14.5068C3.09716 14.5801 2.99843 14.6526 2.89885 14.7258C2.55925 14.9754 2.20986 15.2322 1.96062 15.5477C1.81264 15.7351 1.75976 15.8758 1.75136 15.9752C1.74495 16.051 1.75575 16.1844 1.92792 16.3965C2.42331 17.0069 2.82649 17.25 3.226 17.25C3.64021 17.25 3.976 17.5858 3.976 18C3.976 18.4142 3.64021 18.75 3.226 18.75C2.12691 18.75 1.33811 18.0501 0.763256 17.3418C0.387699 16.8791 0.212523 16.3714 0.25669 15.8489C0.298862 15.3499 0.533102 14.935 0.783584 14.6179C1.1756 14.1217 1.75719 13.6986 2.09788 13.4507C2.16965 13.3985 2.23073 13.3541 2.2771 13.3184L2.73469 13.9126L2.2771 13.3184C3.08139 12.699 3.99394 12.338 4.93247 12.2531Z" fill="#7A869A"/>
<path fill-rule="evenodd" clip-rule="evenodd" d="M15.5218 15.7491C13.3674 14.417 10.6326 14.417 8.47827 15.7491C8.34894 15.8291 8.21026 15.9108 8.06718 15.9952C7.55531 16.297 6.98708 16.6321 6.58886 17.0368C6.34387 17.2859 6.26379 17.4676 6.25183 17.5812C6.24431 17.6527 6.24792 17.8231 6.54221 18.1143C7.27474 18.839 7.9829 19.25 8.81565 19.25H15.1844C16.0172 19.25 16.7253 18.839 17.4578 18.1143C17.7521 17.8231 17.7557 17.6527 17.7482 17.5812C17.7363 17.4676 17.6562 17.2859 17.4112 17.0368C17.013 16.6321 16.4447 16.297 15.9329 15.9952C15.7898 15.9108 15.6511 15.8291 15.5218 15.7491ZM7.68939 14.4733C10.3272 12.8422 13.6729 12.8422 16.3107 14.4733C16.3884 14.5214 16.4869 14.579 16.6001 14.6452C17.1124 14.945 17.9256 15.4208 18.4805 15.9849C18.829 16.3391 19.1766 16.8221 19.24 17.4242C19.3078 18.0683 19.0344 18.6646 18.5128 19.1806C17.6512 20.033 16.5839 20.75 15.1844 20.75H8.81565C7.41619 20.75 6.34886 20.033 5.48724 19.1806C4.96568 18.6646 4.69227 18.0683 4.76008 17.4242C4.82345 16.8221 5.17105 16.3391 5.51957 15.9849C6.07448 15.4208 6.88767 14.945 7.39994 14.6452C7.51312 14.579 7.61162 14.5214 7.68939 14.4733Z" fill="#7A869A"/>
<path fill-rule="evenodd" clip-rule="evenodd" d="M12 4.75C10.4812 4.75 9.25 5.98122 9.25 7.5C9.25 9.01878 10.4812 10.25 12 10.25C13.5188 10.25 14.75 9.01878 14.75 7.5C14.75 5.98122 13.5188 4.75 12 4.75ZM7.75 7.5C7.75 5.15279 9.65279 3.25 12 3.25C14.3472 3.25 16.25 5.15279 16.25 7.5C16.25 9.84721 14.3472 11.75 12 11.75C9.65279 11.75 7.75 9.84721 7.75 7.5Z" fill="#7A869A"/>
</svg>
