<svg width="24" height="24" viewBox="0 0 24 24" fill="none" xmlns="http://www.w3.org/2000/svg">
<path fill-rule="evenodd" clip-rule="evenodd" d="M10.4167 1.25L11.5833 1.25C13.5342 1.24999 15.0706 1.24998 16.2712 1.40242C17.5001 1.55847 18.4904 1.88575 19.2745 2.62631C20.0647 3.37259 20.4194 4.32468 20.5875 5.50521C20.75 6.64729 20.75 8.10541 20.75 9.94069V10C20.75 10.4142 20.4142 10.75 20 10.75C19.5858 10.75 19.25 10.4142 19.25 10C19.25 8.09197 19.2482 6.74077 19.1024 5.71661C18.9604 4.71864 18.6949 4.14213 18.2445 3.71683C17.7882 3.28582 17.1599 3.02731 16.0822 2.89047C14.9871 2.75142 13.546 2.75 11.5294 2.75H10.4706C8.454 2.75 7.01287 2.75142 5.9178 2.89047C4.84011 3.02731 4.21182 3.28582 3.75546 3.71683C3.30515 4.14213 3.03964 4.71864 2.89758 5.71661C2.75178 6.74077 2.75 8.09197 2.75 10L2.75 14C2.75 15.908 2.75178 17.2592 2.89758 18.2834C3.03964 19.2814 3.30515 19.8579 3.75546 20.2832C4.21182 20.7142 4.84011 20.9727 5.91779 21.1095C7.01286 21.2486 8.454 21.25 10.4706 21.25C10.8848 21.25 11.2206 21.5858 11.2206 22C11.2206 22.4142 10.8848 22.75 10.4706 22.75H10.4167C8.46586 22.75 6.92941 22.75 5.72885 22.5976C4.49987 22.4415 3.50965 22.1142 2.72552 21.3737C1.93534 20.6274 1.5806 19.6753 1.41255 18.4948C1.24997 17.3527 1.24998 15.8946 1.25 14.0593L1.25 9.94068C1.24998 8.10541 1.24997 6.64729 1.41255 5.50521C1.5806 4.32468 1.93534 3.37259 2.72552 2.62631C3.50965 1.88575 4.49987 1.55847 5.72885 1.40242C6.92941 1.24998 8.46585 1.24999 10.4167 1.25Z" fill="#7A869A"/>
<path fill-rule="evenodd" clip-rule="evenodd" d="M6.25 7C6.25 6.58579 6.58579 6.25 7 6.25H15C15.4142 6.25 15.75 6.58579 15.75 7C15.75 7.41421 15.4142 7.75 15 7.75H7C6.58579 7.75 6.25 7.41421 6.25 7Z" fill="#7A869A"/>
<path fill-rule="evenodd" clip-rule="evenodd" d="M6.25 12C6.25 11.5858 6.58579 11.25 7 11.25H13C13.4142 11.25 13.75 11.5858 13.75 12C13.75 12.4142 13.4142 12.75 13 12.75H7C6.58579 12.75 6.25 12.4142 6.25 12Z" fill="#7A869A"/>
<path fill-rule="evenodd" clip-rule="evenodd" d="M18 13.75C17.2838 13.75 16.75 14.3031 16.75 14.9287C16.75 15.5542 17.2838 16.1074 18 16.1074C18.7163 16.1074 19.25 15.5542 19.25 14.9287C19.25 14.3031 18.7163 13.75 18 13.75ZM15.25 14.9287C15.25 13.4239 16.5071 12.25 18 12.25C19.4929 12.25 20.75 13.4239 20.75 14.9287C20.75 16.4335 19.4929 17.6074 18 17.6074C16.5071 17.6074 15.25 16.4335 15.25 14.9287ZM21.3709 22.4083C19.8018 19.9909 16.1818 20.0874 14.6234 22.417C14.3931 22.7613 13.9273 22.8537 13.583 22.6234C13.2387 22.3931 13.1463 21.9273 13.3766 21.583C15.4951 18.4162 20.4358 18.2127 22.6291 21.5917C22.8546 21.9391 22.7558 22.4036 22.4084 22.6291C22.0609 22.8546 21.5965 22.7558 21.3709 22.4083Z" fill="#7A869A"/>
</svg>
