<svg width="24" height="24" viewBox="0 0 24 24" fill="none" xmlns="http://www.w3.org/2000/svg">
<path fill-rule="evenodd" clip-rule="evenodd" d="M6.35439 8.11829C6.5652 7.76174 7.02514 7.64358 7.3817 7.85439L10.3237 9.59382C11.1681 10.093 11.617 10.25 12 10.25C12.383 10.25 12.8319 10.093 13.6763 9.59382L16.6183 7.85439C16.9748 7.64358 17.4348 7.76174 17.6456 8.11829C17.8564 8.47485 17.7383 8.93479 17.3817 9.1456L14.4397 10.885C13.5688 11.3999 12.8174 11.75 12 11.75C11.1826 11.75 10.4312 11.3999 9.56031 10.885L6.61829 9.1456C6.26174 8.93479 6.14358 8.47485 6.35439 8.11829Z" fill="#7A869A"/>
<path fill-rule="evenodd" clip-rule="evenodd" d="M14.8823 4.28633C12.9544 4.23789 11.0456 4.23789 9.11766 4.28633C7.52099 4.32644 6.40529 4.35637 5.54405 4.50636C4.71652 4.65048 4.20055 4.89409 3.77629 5.31997C3.34906 5.74882 3.10923 6.25823 2.96964 7.06205C2.82385 7.9016 2.79877 8.98485 2.76559 10.5404C2.7448 11.5154 2.7448 12.4846 2.7656 13.4596C2.79877 15.0152 2.82385 16.0984 2.96964 16.938C3.10923 17.7418 3.34907 18.2512 3.77629 18.68C4.20056 19.1059 4.71653 19.3495 5.54406 19.4936C6.4053 19.6436 7.521 19.6736 9.11767 19.7137C11.0456 19.7621 12.9544 19.7621 14.8823 19.7137C16.479 19.6736 17.5947 19.6436 18.4559 19.4936C19.2835 19.3495 19.7994 19.1059 20.2237 18.68C20.6509 18.2512 20.8908 17.7418 21.0304 16.938C21.1762 16.0984 21.2012 15.0152 21.2344 13.4596C21.2552 12.4846 21.2552 11.5154 21.2344 10.5404C21.2012 8.98486 21.1762 7.90161 21.0304 7.06206C20.8908 6.25824 20.6509 5.74884 20.2237 5.31998C19.7994 4.89411 19.2835 4.65049 18.4559 4.50637C17.5947 4.35638 16.479 4.32645 14.8823 4.28633ZM9.07999 2.7868C11.033 2.73773 12.967 2.73773 14.92 2.78681L14.9782 2.78827C16.503 2.82656 17.73 2.85737 18.7133 3.02862C19.7428 3.20791 20.5795 3.55179 21.2864 4.26134C21.9903 4.96792 22.3324 5.79261 22.5082 6.80542C22.6757 7.76979 22.7012 8.96683 22.7328 10.4497L22.7341 10.5084C22.7553 11.5047 22.7553 12.4953 22.7341 13.4916L22.7328 13.5503C22.7012 15.0332 22.6757 16.2302 22.5082 17.1946C22.3324 18.2074 21.9903 19.0321 21.2864 19.7387C20.5795 20.4482 19.7428 20.7921 18.7133 20.9714C17.73 21.1426 16.503 21.1735 14.9782 21.2117L14.92 21.2132C12.967 21.2623 11.033 21.2623 9.07999 21.2132L9.02177 21.2117C7.49697 21.1735 6.27001 21.1426 5.2867 20.9714C4.2572 20.7921 3.42048 20.4482 2.71362 19.7387C2.00972 19.0321 1.66764 18.2074 1.49176 17.1946C1.32429 16.2302 1.29879 15.0332 1.26719 13.5504L1.26594 13.4916C1.24469 12.4953 1.24469 11.5047 1.26593 10.5084L1.26719 10.4497C1.29878 8.96681 1.32429 7.76978 1.49176 6.8054C1.66764 5.7926 2.00971 4.9679 2.71362 4.26132C3.42048 3.55177 4.2572 3.20789 5.2867 3.0286C6.27002 2.85735 7.497 2.82655 9.02182 2.78826L9.07999 2.7868Z" fill="#7A869A"/>
</svg>
