<svg width="24" height="24" viewBox="0 0 24 24" fill="none" xmlns="http://www.w3.org/2000/svg">
<path fill-rule="evenodd" clip-rule="evenodd" d="M13.5359 2.8157C12.2104 2.72801 10.8252 2.72819 9.50243 2.8157C5.90146 3.05392 3.02367 5.95095 2.78673 9.59981C2.73776 10.354 2.73776 11.136 2.78673 11.8901C2.86972 13.1682 3.44304 14.3944 4.17295 15.4852C4.1845 15.5024 4.19533 15.5202 4.20541 15.5383C4.85299 16.7052 4.37604 18.031 3.90031 18.9282C3.83604 19.0494 3.78142 19.1525 3.73468 19.2437C3.79096 19.2453 3.85271 19.2468 3.92145 19.2485C4.93131 19.273 5.56907 18.9954 6.0766 18.6229L6.0939 18.6102C6.25872 18.4892 6.40932 18.3787 6.53425 18.2982C6.64219 18.2287 6.84489 18.1024 7.09248 18.0721L7.18359 18.8166L7.09249 18.0721C7.31616 18.0447 7.5215 18.1054 7.62741 18.1386C7.75791 18.1796 7.91004 18.2392 8.07203 18.3047C8.45606 18.4599 8.64155 18.897 8.48633 19.281C8.33111 19.6651 7.89396 19.8506 7.50993 19.6953C7.41269 19.656 7.33757 19.6266 7.27868 19.6047C7.20376 19.6565 7.10503 19.7287 6.96408 19.8322L6.52034 19.2275L6.96408 19.8322C6.20367 20.3902 5.24408 20.781 3.88512 20.7481C3.87034 20.7477 3.85547 20.7474 3.84054 20.747C3.58086 20.7408 3.30036 20.7342 3.07092 20.69C2.7936 20.6366 2.44401 20.5019 2.22471 20.1298C1.98506 19.7232 2.08228 19.3128 2.17288 19.0604C2.25814 18.8229 2.40544 18.5453 2.55392 18.2654C2.56097 18.2521 2.56803 18.2388 2.57508 18.2255C3.01778 17.3906 3.13163 16.7252 2.90613 16.2891C2.11246 15.0964 1.3961 13.623 1.28988 11.9873C1.23671 11.1685 1.23671 10.3215 1.28988 9.50261C1.57491 5.11334 5.04064 1.60759 9.40341 1.31897C10.792 1.2271 12.2434 1.22692 13.6349 1.31897C17.9791 1.60637 21.4339 5.0836 21.7446 9.44673C21.774 9.8599 21.463 10.2187 21.0498 10.2481C20.6366 10.2775 20.2778 9.96644 20.2484 9.55327C19.9901 5.92636 17.1215 3.05291 13.5359 2.8157Z" fill="#7A869A"/>
<path fill-rule="evenodd" clip-rule="evenodd" d="M14.6496 10.2927C15.5379 10.2357 16.4639 10.2358 17.3504 10.2927C20.2232 10.477 22.5337 12.7205 22.7242 15.5645C22.7586 16.0785 22.7586 16.6098 22.7242 17.1238C22.6526 18.1928 22.1749 19.1398 21.6646 19.8867C21.6387 19.9418 21.6219 20.0269 21.6464 20.1709C21.675 20.3391 21.7538 20.5435 21.8779 20.7704C21.8837 20.781 21.8895 20.7916 21.8954 20.8024C21.9848 20.9657 22.0877 21.1536 22.1494 21.3203C22.2168 21.5021 22.3158 21.8679 22.092 22.2362C21.8935 22.5628 21.5824 22.6698 21.3733 22.7089C21.2066 22.74 21.009 22.7444 20.8518 22.748C20.8403 22.7482 20.829 22.7485 20.818 22.7487C19.9029 22.7702 19.2419 22.5132 18.716 22.139C18.6865 22.1181 18.6601 22.0993 18.6361 22.0823C18.5884 22.1009 18.5342 22.1224 18.4706 22.1477C18.1151 22.289 17.7164 22.3721 17.3504 22.3956C16.4639 22.4525 15.5379 22.4526 14.6496 22.3956C11.7768 22.2113 9.46631 19.9678 9.27582 17.1238C9.24139 16.6098 9.24139 16.0785 9.27582 15.5645C9.46631 12.7205 11.7768 10.477 14.6496 10.2927ZM17.2544 11.7896C16.4318 11.7369 15.5699 11.7367 14.7456 11.7896C12.5989 11.9273 10.911 13.5966 10.7725 15.6648C10.7425 16.112 10.7425 16.5763 10.7725 17.0235C10.911 19.0917 12.5989 20.761 14.7456 20.8987C15.5699 20.9516 16.4318 20.9514 17.2544 20.8987C17.4768 20.8844 17.7196 20.8321 17.9166 20.7538L18.1936 21.4507L17.9166 20.7538L17.9332 20.7472C18.0725 20.6918 18.2031 20.6399 18.3082 20.6042C18.3104 20.6035 18.3128 20.6027 18.3153 20.6018C18.3924 20.5756 18.5979 20.5055 18.8211 20.532C19.041 20.5581 19.2133 20.6655 19.2833 20.7092C19.3693 20.7629 19.4705 20.8349 19.5709 20.9063L19.5856 20.9169C19.7986 21.0684 20.0557 21.1938 20.4325 21.2354C20.1686 20.671 19.9469 19.8664 20.3723 19.1232C20.3828 19.105 20.394 19.0871 20.406 19.0698C20.8522 18.4234 21.1804 17.7268 21.2275 17.0235C21.2575 16.5763 21.2575 16.112 21.2275 15.6648C21.089 13.5966 19.4011 11.9273 17.2544 11.7896ZM20.7443 21.8454C20.7442 21.8455 20.7439 21.8445 20.7433 21.8425C20.744 21.8444 20.7443 21.8454 20.7443 21.8454ZM21.0973 21.2345C21.098 21.2343 21.0983 21.2343 21.0983 21.2343C21.0983 21.2343 21.0982 21.2343 21.0979 21.2343C21.0977 21.2344 21.0975 21.2344 21.0973 21.2345Z" fill="#7A869A"/>
</svg>
