<svg width="24" height="24" viewBox="0 0 24 24" fill="none" xmlns="http://www.w3.org/2000/svg">
<path fill-rule="evenodd" clip-rule="evenodd" d="M18.6407 17.0893C18.396 16.8971 18.1388 16.6949 17.9773 16.5378C17.6802 16.2491 17.6735 15.7743 17.9622 15.4773C18.2509 15.1802 18.7257 15.1735 19.0227 15.4622C19.114 15.5509 19.2958 15.6965 19.5672 15.9097C19.5869 15.9251 19.6069 15.9408 19.6272 15.9568C19.8693 16.1468 20.1534 16.3698 20.4245 16.5995C20.715 16.8457 21.0168 17.1213 21.2515 17.3968C21.369 17.5348 21.485 17.6904 21.5746 17.8578C21.661 18.0193 21.75 18.2417 21.75 18.5C21.75 18.7583 21.661 18.9807 21.5746 19.1422C21.485 19.3096 21.369 19.4652 21.2515 19.6032C21.0168 19.8787 20.715 20.1543 20.4245 20.4005C20.1534 20.6302 19.8693 20.8532 19.6272 21.0433C19.6069 21.0592 19.5869 21.0749 19.5672 21.0903C19.2958 21.3035 19.114 21.4491 19.0227 21.5378C18.7257 21.8265 18.2509 21.8198 17.9622 21.5227C17.6735 21.2257 17.6802 20.7509 17.9773 20.4622C18.1388 20.3051 18.396 20.1029 18.6407 19.9107C18.6596 19.8958 18.6786 19.8809 18.6976 19.866C18.9434 19.673 19.2061 19.4667 19.4548 19.2561C19.4572 19.254 19.4595 19.252 19.4619 19.25L13 19.25C12.5858 19.25 12.25 18.9142 12.25 18.5C12.25 18.0858 12.5858 17.75 13 17.75L19.4619 17.75C19.4595 17.748 19.4572 17.746 19.4548 17.7439C19.2061 17.5333 18.9434 17.327 18.6976 17.134C18.6786 17.1191 18.6596 17.1042 18.6407 17.0893Z" fill="#7A869A"/>
<path fill-rule="evenodd" clip-rule="evenodd" d="M6.99462 21.1543C7.90354 21.249 9.08055 21.25 10.7273 21.25H11C11.4142 21.25 11.75 21.5858 11.75 22C11.75 22.4142 11.4142 22.75 11 22.75L10.6839 22.75C9.09005 22.75 7.83489 22.75 6.83912 22.6462C5.82238 22.5403 4.98632 22.3192 4.2711 21.8153C3.8893 21.5463 3.54882 21.2262 3.26073 20.864C2.71584 20.1789 2.47549 19.3734 2.3611 18.4012C2.24998 17.4568 2.24999 16.2693 2.25 14.7754V12.1545C2.25 10.696 2.25 9.56439 2.31024 8.65098C2.37131 7.72517 2.49654 6.97174 2.77169 6.27744C3.60981 4.16255 5.37464 2.51135 7.58994 1.73369C8.96881 1.24965 10.6607 1.24977 13.6261 1.24999C13.6895 1.25 13.7536 1.25 13.8182 1.25C13.8758 1.25 13.9327 1.24999 13.9888 1.24998C15.624 1.24964 16.643 1.24943 17.4836 1.54454C18.8327 2.01811 19.9143 3.02622 20.4293 4.32583C20.6039 4.76657 20.6789 5.23447 20.7149 5.7794C20.75 6.312 20.75 6.96755 20.75 7.79193L20.75 13C20.75 13.4142 20.4142 13.75 20 13.75C19.5858 13.75 19.25 13.4142 19.25 13V7.81818C19.25 6.96167 19.2496 6.35555 19.2181 5.87812C19.1871 5.40739 19.1281 5.11389 19.0348 4.87845C18.6882 4.00397 17.9477 3.29718 16.9868 2.95987C16.4195 2.76071 15.6807 2.75 13.8182 2.75C10.6063 2.75 9.19294 2.76071 8.08678 3.14902C6.25963 3.79042 4.83582 5.1403 4.16618 6.83006C3.97239 7.31907 3.86316 7.89809 3.80699 8.7497C3.75038 9.608 3.75 10.6903 3.75 12.1818V14.7273C3.75 16.2801 3.75121 17.3793 3.85082 18.2259C3.94836 19.0549 4.13186 19.5495 4.43467 19.9302C4.63234 20.1788 4.86794 20.4009 5.13504 20.5891C5.55221 20.883 6.09765 21.0608 6.99462 21.1543Z" fill="#7A869A"/>
<path fill-rule="evenodd" clip-rule="evenodd" d="M3 12.75C2.58579 12.75 2.25 12.4142 2.25 12C2.25 9.74484 4.07817 7.91667 6.33333 7.91667C6.51909 7.91667 6.7087 7.92478 6.88576 7.93299C6.90858 7.93405 6.9312 7.93511 6.95362 7.93616C7.1103 7.94351 7.25779 7.95042 7.40484 7.95348C7.74549 7.96055 8.01807 7.94416 8.23725 7.88543C8.55358 7.80067 8.80067 7.55358 8.88543 7.23725C8.94416 7.01807 8.96055 6.74549 8.95348 6.40484C8.95042 6.25781 8.94351 6.11034 8.93616 5.95369C8.93511 5.93124 8.93405 5.90861 8.93299 5.88576C8.92478 5.7087 8.91667 5.51909 8.91667 5.33333C8.91667 3.07817 10.7448 1.25 13 1.25C13.4142 1.25 13.75 1.58579 13.75 2C13.75 2.41421 13.4142 2.75 13 2.75C11.5733 2.75 10.4167 3.9066 10.4167 5.33333C10.4167 5.48046 10.4231 5.63864 10.4314 5.81624C10.4324 5.83787 10.4334 5.85982 10.4345 5.88206C10.4417 6.03698 10.4497 6.20556 10.4532 6.3737C10.461 6.75379 10.449 7.19733 10.3343 7.62548C10.1109 8.45945 9.45945 9.11086 8.62548 9.33432C8.19733 9.44904 7.75379 9.46105 7.3737 9.45315C7.20556 9.44966 7.03697 9.44174 6.88206 9.43446C6.85982 9.43341 6.83787 9.43238 6.81624 9.43138C6.63864 9.42314 6.48046 9.41667 6.33333 9.41667C4.9066 9.41667 3.75 10.5733 3.75 12C3.75 12.4142 3.41421 12.75 3 12.75Z" fill="#7A869A"/>
</svg>
