<svg width="24" height="24" viewBox="0 0 24 24" fill="none" xmlns="http://www.w3.org/2000/svg">
<path fill-rule="evenodd" clip-rule="evenodd" d="M10.75 22.0008C10.7493 22.415 10.413 22.7503 9.99882 22.7496C8.61604 22.7474 7.50575 22.7331 6.60581 22.6194C5.69361 22.5042 4.93114 22.2803 4.2711 21.8153C3.8893 21.5463 3.54882 21.2262 3.26073 20.864C2.71584 20.1789 2.47549 19.3734 2.3611 18.4012C2.24998 17.4568 2.24999 16.2693 2.25 14.7754V12.1545C2.25 10.696 2.25 9.56439 2.31024 8.65098C2.37131 7.72517 2.49654 6.97174 2.77169 6.27744C3.60981 4.16255 5.37464 2.51135 7.58994 1.73369C8.96881 1.24965 10.6607 1.24977 13.6261 1.24999C13.6895 1.25 13.7536 1.25 13.8182 1.25C13.8758 1.25 13.9327 1.24999 13.9888 1.24998C15.624 1.24964 16.643 1.24943 17.4836 1.54454C18.8327 2.01812 19.9143 3.02623 20.4293 4.32583C20.6039 4.76657 20.6789 5.23447 20.7149 5.7794C20.75 6.312 20.75 6.96755 20.75 7.79194L20.75 11C20.75 11.4142 20.4142 11.75 20 11.75C19.5858 11.75 19.25 11.4142 19.25 11V7.81818C19.25 6.96167 19.2496 6.35556 19.2181 5.87813C19.1871 5.40739 19.1281 5.1139 19.0348 4.87846C18.6882 4.00397 17.9477 3.29718 16.9868 2.95987C16.4195 2.76071 15.6807 2.75 13.8182 2.75C10.6063 2.75 9.19294 2.76071 8.08678 3.14902C6.25963 3.79042 4.83582 5.1403 4.16618 6.83007C3.97239 7.31907 3.86316 7.89809 3.80699 8.7497C3.75038 9.608 3.75 10.6903 3.75 12.1818V14.7273C3.75 16.2801 3.75121 17.3793 3.85082 18.2259C3.94836 19.0549 4.13186 19.5495 4.43467 19.9302C4.63234 20.1788 4.86794 20.4009 5.13504 20.5891C5.51989 20.8602 6.01442 21.0328 6.79372 21.1312C7.58529 21.2312 8.60102 21.2474 10.0012 21.2496C10.4154 21.2503 10.7507 21.5866 10.75 22.0008Z" fill="#7A869A"/>
<path fill-rule="evenodd" clip-rule="evenodd" d="M3 12.75C2.58579 12.75 2.25 12.4142 2.25 12C2.25 9.74484 4.07817 7.91667 6.33333 7.91667C6.51909 7.91667 6.7087 7.92478 6.88576 7.93299C6.90858 7.93405 6.9312 7.93511 6.95362 7.93616C7.1103 7.94351 7.25779 7.95042 7.40484 7.95348C7.74549 7.96055 8.01807 7.94416 8.23725 7.88543C8.55358 7.80067 8.80067 7.55358 8.88543 7.23725C8.94416 7.01807 8.96055 6.74549 8.95348 6.40484C8.95042 6.25781 8.94351 6.11034 8.93616 5.95369C8.93511 5.93124 8.93405 5.90861 8.93299 5.88576C8.92478 5.7087 8.91667 5.51909 8.91667 5.33333C8.91667 3.07817 10.7448 1.25 13 1.25C13.4142 1.25 13.75 1.58579 13.75 2C13.75 2.41421 13.4142 2.75 13 2.75C11.5733 2.75 10.4167 3.9066 10.4167 5.33333C10.4167 5.48046 10.4231 5.63864 10.4314 5.81624C10.4324 5.83787 10.4334 5.85982 10.4345 5.88206C10.4417 6.03698 10.4497 6.20556 10.4532 6.3737C10.461 6.75379 10.449 7.19733 10.3343 7.62548C10.1109 8.45945 9.45945 9.11086 8.62548 9.33432C8.19733 9.44904 7.75379 9.46105 7.3737 9.45315C7.20556 9.44966 7.03697 9.44174 6.88206 9.43446C6.85982 9.43341 6.83787 9.43238 6.81624 9.43138C6.63864 9.42314 6.48046 9.41667 6.33333 9.41667C4.9066 9.41667 3.75 10.5733 3.75 12C3.75 12.4142 3.41421 12.75 3 12.75Z" fill="#7A869A"/>
<path fill-rule="evenodd" clip-rule="evenodd" d="M17.627 13.5542C18.3296 13.1486 19.1952 13.1486 19.8978 13.5542C20.1593 13.7053 20.3936 13.94 20.6667 14.2137C20.6865 14.2335 20.7064 14.2534 20.7265 14.2735C20.7466 14.2937 20.7666 14.3136 20.7863 14.3333C21.06 14.6064 21.2948 14.8407 21.4458 15.1023C21.8515 15.8049 21.8515 16.6705 21.4458 17.3731C21.2948 17.6347 21.06 17.8689 20.7863 18.1421C20.7666 18.1618 20.7466 18.1817 20.7265 18.2018L17.4187 21.5097C16.9533 21.975 16.3914 22.1924 15.8866 22.3213C15.6346 22.3856 15.3814 22.4315 15.1517 22.4712C15.1105 22.4783 15.0702 22.4852 15.0308 22.4919C14.8419 22.5243 14.6715 22.5534 14.5046 22.5891C14.4898 22.5923 14.475 22.5955 14.4602 22.5986C14.1542 22.6642 13.8481 22.7297 13.5948 22.7458C13.3159 22.7636 12.9114 22.7362 12.5876 22.4124C12.2638 22.0887 12.2365 21.6842 12.2542 21.4052C12.2703 21.152 12.3359 20.8458 12.4014 20.5398C12.4046 20.525 12.4077 20.5102 12.4109 20.4955C12.4466 20.3285 12.4758 20.1582 12.5081 19.9693C12.5149 19.9298 12.5218 19.8896 12.5289 19.8483C12.5686 19.6186 12.6144 19.3654 12.6788 19.1134C12.8076 18.6086 13.0251 18.0467 13.4904 17.5814L16.7982 14.2735C16.8184 14.2534 16.8383 14.2335 16.858 14.2137C17.1311 13.94 17.3654 13.7053 17.627 13.5542ZM19.1478 14.8533C18.9093 14.7156 18.6155 14.7156 18.377 14.8533C18.3106 14.8916 18.2264 14.9667 17.8589 15.3342L14.5511 18.642C14.3555 18.8376 14.2291 19.1048 14.1321 19.4845C14.0836 19.6747 14.046 19.8776 14.007 20.1037C14.0008 20.1394 13.9946 20.176 13.9882 20.2132C13.9558 20.4025 13.9205 20.6091 13.8777 20.8091C13.8444 20.9651 13.817 21.0932 13.7956 21.2044C13.9068 21.183 14.0349 21.1557 14.1909 21.1223C14.391 21.0795 14.5975 21.0442 14.7868 21.0119C14.8241 21.0055 14.8606 20.9992 14.8963 20.9931C15.1225 20.954 15.3254 20.9165 15.5156 20.8679C15.8953 20.771 16.1625 20.6445 16.358 20.449L19.6658 17.1412C20.0333 16.7737 20.1085 16.6894 20.1468 16.6231C20.2845 16.3846 20.2845 16.0908 20.1468 15.8523C20.1085 15.786 20.0333 15.7017 19.6658 15.3342C19.2983 14.9667 19.2141 14.8916 19.1478 14.8533Z" fill="#7A869A"/>
</svg>
