<svg width="24" height="24" viewBox="0 0 24 24" fill="none" xmlns="http://www.w3.org/2000/svg">
<path fill-rule="evenodd" clip-rule="evenodd" d="M16.5635 1.35272C15.5812 1.24997 14.3484 1.24998 12.8073 1.25H11.932C10.039 1.24998 8.52512 1.24996 7.33708 1.40084C6.11256 1.55636 5.08724 1.88704 4.26839 2.66056C3.4412 3.44196 3.07982 4.4338 2.91129 5.6179C2.74994 6.75155 2.74997 8.19138 2.75 9.97012V16.1199C2.74999 16.9191 2.74999 17.5666 2.78472 18.0952C2.82051 18.6399 2.89613 19.1255 3.0794 19.5897C3.60821 20.929 4.71664 21.9633 6.09319 22.4483C6.95199 22.7509 8.42408 22.7505 9.97908 22.7499C12.8187 22.7503 14.5054 22.7505 15.8878 22.2634C18.1078 21.4812 19.8815 19.8185 20.7249 17.6824C21.006 16.9705 21.1306 16.2058 21.1908 15.2889C21.25 14.3882 21.25 13.2756 21.25 11.8573V9.2738C21.25 7.82571 21.25 6.65306 21.1402 5.71573C21.026 4.74233 20.7828 3.90445 20.213 3.18538C19.9178 2.81289 19.5692 2.48412 19.1789 2.20807C18.4341 1.68141 17.5729 1.45832 16.5635 1.35272ZM5.60307 4.08389C5.99626 3.71247 6.55233 3.47067 7.58156 3.33996C8.63306 3.20641 10.0233 3.20457 12 3.20457H12.7524C14.361 3.20457 15.4922 3.20581 16.3616 3.29677C17.2155 3.3861 17.6994 3.55286 18.0573 3.8059C18.2987 3.97664 18.5111 4.17773 18.6889 4.40209C18.9445 4.72458 19.1139 5.15738 19.2061 5.94417C19.3011 6.75393 19.3026 7.81126 19.3026 9.33471L19.3027 12.2349C19.3027 12.5019 19.3026 13.1405 19.022 13.6126C18.849 13.9036 18.6276 14.1467 18.4002 14.2705C18.0336 14.4701 17.6135 14.5834 17.1668 14.5834L16.1264 14.5469C15.7463 14.5391 15.3028 14.5511 14.8746 14.6658C14.0407 14.8892 13.3893 15.5406 13.1658 16.3746C13.0511 16.8028 13.0391 17.2463 13.047 17.6264L13.0835 18.6668C13.0835 19.1345 12.9591 19.5416 12.7417 19.92C12.615 20.1406 12.3943 20.3425 12.0895 20.5198C11.6274 20.7887 11.074 20.7912 10.7358 20.7927C10.3977 20.7942 10.0409 20.7954 9.74284 20.7954C7.90872 20.7954 7.24159 20.7815 6.73823 20.6041C5.8656 20.2966 5.1999 19.655 4.88981 18.8696C4.81217 18.673 4.75733 18.4146 4.72789 17.9666C4.69788 17.51 4.69738 16.927 4.69738 16.0867V10.0455C4.69738 8.17339 4.69971 6.87372 4.8391 5.89433C4.97359 4.94944 5.21822 4.44743 5.60307 4.08389Z" fill="#7A869A"/>
<path fill-rule="evenodd" clip-rule="evenodd" d="M6.99994 6.99997C6.99994 6.44768 7.44765 5.99997 7.99994 5.99997H14.9999C15.5522 5.99997 15.9999 6.44768 15.9999 6.99997C15.9999 7.55225 15.5522 7.99997 14.9999 7.99997H7.99994C7.44765 7.99997 6.99994 7.55225 6.99994 6.99997Z" fill="#7A869A"/>
<path fill-rule="evenodd" clip-rule="evenodd" d="M6.99994 11C6.99994 10.4477 7.44765 9.99997 7.99994 9.99997H10.9999C11.5522 9.99997 11.9999 10.4477 11.9999 11C11.9999 11.5523 11.5522 12 10.9999 12H7.99994C7.44765 12 6.99994 11.5523 6.99994 11Z" fill="#7A869A"/>
</svg>
